<svg id="visual" viewBox="0 0 540 960" width="540" height="960" xmlns="http://www.w3.org/2000/svg" xmlns:xlink="http://www.w3.org/1999/xlink" version="1.1"><rect x="0" y="0" width="540" height="960" fill="#e4f7ff"></rect><path d="M0 426L45 435.5C90 445 180 464 270 461.5C360 459 450 435 495 423L540 411L540 961L495 961C450 961 360 961 270 961C180 961 90 961 45 961L0 961Z" fill="#0066ff"></path><path d="M0 522L45 530.8C90 539.7 180 557.3 270 564C360 570.7 450 566.3 495 564.2L540 562L540 961L495 961C450 961 360 961 270 961C180 961 90 961 45 961L0 961Z" fill="#007aff"></path><path d="M0 648L45 645.8C90 643.7 180 639.3 270 632.8C360 626.3 450 617.7 495 613.3L540 609L540 961L495 961C450 961 360 961 270 961C180 961 90 961 45 961L0 961Z" fill="#008cff"></path><path d="M0 735L45 737C90 739 180 743 270 744C360 745 450 743 495 742L540 741L540 961L495 961C450 961 360 961 270 961C180 961 90 961 45 961L0 961Z" fill="#2b9dfc"></path><path d="M0 836L45 831.7C90 827.3 180 818.7 270 819.7C360 820.7 450 831.3 495 836.7L540 842L540 961L495 961C450 961 360 961 270 961C180 961 90 961 45 961L0 961Z" fill="#4facf7"></path></svg>