<svg id="visual" viewBox="0 0 960 540" width="960" height="540" xmlns="http://www.w3.org/2000/svg" xmlns:xlink="http://www.w3.org/1999/xlink" version="1.1"><rect x="0" y="0" width="960" height="540" fill="#e4f7ff"></rect><path d="M0 165L22.8 157.2C45.7 149.3 91.3 133.7 137 144.2C182.7 154.7 228.3 191.3 274 207.2C319.7 223 365.3 218 411.2 202C457 186 503 159 548.8 148.7C594.7 138.3 640.3 144.7 686 156.7C731.7 168.7 777.3 186.3 823 195.8C868.7 205.3 914.3 206.7 937.2 207.3L960 208L960 541L937.2 541C914.3 541 868.7 541 823 541C777.3 541 731.7 541 686 541C640.3 541 594.7 541 548.8 541C503 541 457 541 411.2 541C365.3 541 319.7 541 274 541C228.3 541 182.7 541 137 541C91.3 541 45.7 541 22.8 541L0 541Z" fill="#0066ff"></path><path d="M0 207L22.8 207.8C45.7 208.7 91.3 210.3 137 225C182.7 239.7 228.3 267.3 274 264.3C319.7 261.3 365.3 227.7 411.2 207.7C457 187.7 503 181.3 548.8 199.7C594.7 218 640.3 261 686 267.7C731.7 274.3 777.3 244.7 823 231.7C868.7 218.7 914.3 222.3 937.2 224.2L960 226L960 541L937.2 541C914.3 541 868.7 541 823 541C777.3 541 731.7 541 686 541C640.3 541 594.7 541 548.8 541C503 541 457 541 411.2 541C365.3 541 319.7 541 274 541C228.3 541 182.7 541 137 541C91.3 541 45.7 541 22.8 541L0 541Z" fill="#007aff"></path><path d="M0 362L22.8 360.8C45.7 359.7 91.3 357.3 137 346.3C182.7 335.3 228.3 315.7 274 305.2C319.7 294.7 365.3 293.3 411.2 300.8C457 308.3 503 324.7 548.8 320.2C594.7 315.7 640.3 290.3 686 274.2C731.7 258 777.3 251 823 268.2C868.7 285.3 914.3 326.7 937.2 347.3L960 368L960 541L937.2 541C914.3 541 868.7 541 823 541C777.3 541 731.7 541 686 541C640.3 541 594.7 541 548.8 541C503 541 457 541 411.2 541C365.3 541 319.7 541 274 541C228.3 541 182.7 541 137 541C91.3 541 45.7 541 22.8 541L0 541Z" fill="#008cff"></path><path d="M0 409L22.8 399.2C45.7 389.3 91.3 369.7 137 356.7C182.7 343.7 228.3 337.3 274 343.3C319.7 349.3 365.3 367.7 411.2 371.5C457 375.3 503 364.7 548.8 360.5C594.7 356.3 640.3 358.7 686 355.5C731.7 352.3 777.3 343.7 823 348C868.7 352.3 914.3 369.7 937.2 378.3L960 387L960 541L937.2 541C914.3 541 868.7 541 823 541C777.3 541 731.7 541 686 541C640.3 541 594.7 541 548.8 541C503 541 457 541 411.2 541C365.3 541 319.7 541 274 541C228.3 541 182.7 541 137 541C91.3 541 45.7 541 22.8 541L0 541Z" fill="#2b9dfc"></path><path d="M0 415L22.8 427.7C45.7 440.3 91.3 465.7 137 464.8C182.7 464 228.3 437 274 432.3C319.7 427.7 365.3 445.3 411.2 459.2C457 473 503 483 548.8 479.2C594.7 475.3 640.3 457.7 686 451.7C731.7 445.7 777.3 451.3 823 445.5C868.7 439.7 914.3 422.3 937.2 413.7L960 405L960 541L937.2 541C914.3 541 868.7 541 823 541C777.3 541 731.7 541 686 541C640.3 541 594.7 541 548.8 541C503 541 457 541 411.2 541C365.3 541 319.7 541 274 541C228.3 541 182.7 541 137 541C91.3 541 45.7 541 22.8 541L0 541Z" fill="#4facf7"></path></svg>